<svg width="149" height="23" viewBox="0 0 149 23" fill="none" xmlns="http://www.w3.org/2000/svg">
<path d="M11.5 0L14.0819 7.9463H22.4371L15.6776 12.8574L18.2595 20.8037L11.5 15.8926L4.74047 20.8037L7.32238 12.8574L0.56285 7.9463H8.91809L11.5 0Z" fill="#2F2F2F"/>
<path d="M43 0L45.6942 7.9463H54.4127L47.3593 12.8574L50.0534 20.8037L43 15.8926L35.9466 20.8037L38.6407 12.8574L31.5873 7.9463H40.3058L43 0Z" fill="#2F2F2F"/>
<path d="M74.5 0L77.0819 7.9463H85.4371L78.6776 12.8574L81.2595 20.8037L74.5 15.8926L67.7405 20.8037L70.3224 12.8574L63.5628 7.9463H71.9181L74.5 0Z" fill="#2F2F2F"/>
<path d="M106 0L108.694 7.9463H117.413L110.359 12.8574L113.053 20.8037L106 15.8926L98.9466 20.8037L101.641 12.8574L94.5873 7.9463H103.306L106 0Z" fill="#2F2F2F"/>
<path d="M137.5 1.61804L139.606 8.10081L139.719 8.4463H140.082H146.898L141.384 12.4529L141.09 12.6664L141.202 13.0119L143.308 19.4947L137.794 15.4881L137.5 15.2746L137.206 15.4881L131.692 19.4947L133.798 13.0119L133.91 12.6664L133.616 12.4529L128.102 8.4463H134.918H135.281L135.394 8.10081L137.5 1.61804Z" stroke="#2F2F2F"/>
</svg>
