<svg width="202" height="97" viewBox="0 0 202 97" fill="none" xmlns="http://www.w3.org/2000/svg">
<path d="M161.807 77.6228C161.736 77.5896 161.662 77.5896 161.581 77.6191C161.503 77.645 161.444 77.7004 161.396 77.789C161.288 77.9811 161.166 78.2176 161.022 78.4836C160.885 78.7495 160.74 79.0081 160.596 79.2519C160.451 79.4958 160.311 79.7063 160.166 79.8873C160.018 80.0721 159.888 80.1681 159.773 80.1866C159.659 80.205 159.581 80.1866 159.536 80.1349C159.492 80.0831 159.473 80.024 159.466 79.9538L159.773 77.3347C160.033 77.2238 160.255 77.0908 160.436 76.9357C160.618 76.7805 160.759 76.6143 160.862 76.437C160.962 76.2633 161.033 76.0934 161.07 75.9161C161.103 75.7425 161.111 75.591 161.088 75.4543C161.073 75.3583 161.044 75.2733 160.992 75.2031C160.94 75.1329 160.892 75.0775 160.84 75.0406C160.788 75.0036 160.748 74.9889 160.707 74.9889C160.67 74.9889 160.651 75.0073 160.655 75.048C160.673 75.1551 160.633 75.2918 160.529 75.458C160.429 75.6279 160.229 75.7794 159.933 75.9124L160.692 69.3552C160.733 69.0523 160.633 68.8048 160.385 68.6053C160.136 68.4058 159.803 68.343 159.388 68.4058C158.996 68.4686 158.618 68.6238 158.255 68.8602C157.896 69.1003 157.544 69.3922 157.203 69.7394C156.866 70.0904 156.547 70.4746 156.247 70.8994C155.951 71.3168 155.67 71.7417 155.403 72.1591C155.14 72.5839 154.899 72.9866 154.684 73.3819C154.462 73.7735 154.273 74.1133 154.114 74.3941C153.651 74.2315 153.195 74.1318 152.747 74.0985C152.299 74.0653 151.844 74.0912 151.381 74.1614C150.858 74.2426 150.399 74.3904 149.995 74.6083C149.599 74.8263 149.266 75.0738 149.003 75.3546C148.743 75.639 148.555 75.9383 148.436 76.2523C148.321 76.5663 148.284 76.8581 148.325 77.1389C148.362 77.3494 148.421 77.5194 148.51 77.6487C148.603 77.778 148.695 77.874 148.795 77.9331C148.892 77.9959 148.977 78.0255 149.044 78.0218C149.114 78.0181 149.14 77.9811 149.132 77.9109C149.099 77.7299 149.151 77.5378 149.277 77.3347C149.403 77.1315 149.584 76.9394 149.821 76.7584C150.062 76.5774 150.344 76.4185 150.666 76.2781C150.988 76.134 151.329 76.038 151.684 75.9826C151.944 75.942 152.199 75.9235 152.458 75.9235C152.718 75.9272 152.97 75.9493 153.225 75.9863C152.77 76.9763 152.358 77.8371 151.992 78.5685C151.621 79.3 151.277 79.9169 150.958 80.4082C150.636 80.8996 150.325 81.2838 150.025 81.5534C149.729 81.8194 149.421 81.9819 149.103 82.0263C148.855 82.0669 148.647 82.0226 148.484 81.8933C148.318 81.7603 148.221 81.5978 148.188 81.4057C148.151 81.1766 148.195 80.955 148.321 80.7444C148.447 80.5338 148.566 80.375 148.692 80.2789C148.718 80.2568 148.718 80.1866 148.695 80.0721C148.673 79.9575 148.614 79.8356 148.521 79.7137C148.429 79.5955 148.295 79.4884 148.129 79.3997C147.962 79.3111 147.758 79.2889 147.521 79.3258C147.184 79.3812 146.906 79.4958 146.688 79.6805C146.469 79.8615 146.306 80.0721 146.192 80.3122C146.077 80.5523 146.006 80.7998 145.973 81.0473C145.947 81.2985 145.947 81.5276 145.977 81.7271C146.021 82.0115 146.121 82.2923 146.266 82.5656C146.414 82.8427 146.606 83.0717 146.851 83.2564C147.092 83.4449 147.377 83.5889 147.71 83.6739C148.036 83.7662 148.41 83.781 148.825 83.7108C149.518 83.6037 150.162 83.3303 150.766 82.887C151.366 82.4511 151.925 81.9007 152.444 81.2505C152.958 80.5966 153.444 79.8615 153.895 79.0414C154.347 78.2213 154.773 77.3753 155.162 76.5072C155.54 76.6439 155.91 76.7842 156.266 76.9209C156.625 77.065 156.973 77.1869 157.303 77.2903L156.977 80.0905C156.959 80.2715 156.959 80.4526 156.984 80.641C157.007 80.8294 157.062 80.9993 157.14 81.1618C157.218 81.3244 157.333 81.45 157.481 81.5571C157.633 81.6643 157.825 81.7197 158.066 81.7308C158.592 81.7529 159.055 81.6532 159.455 81.4241C159.851 81.1951 160.199 80.8959 160.496 80.5375C160.792 80.1755 161.048 79.7802 161.266 79.3517C161.366 79.1522 161.466 78.9601 161.551 78.7717C161.659 78.5537 161.755 78.3469 161.848 78.1511C161.922 77.9959 161.944 77.8703 161.922 77.778C161.899 77.6893 161.851 77.6302 161.785 77.6043L161.807 77.6228ZM157.918 72.2145L157.499 75.9013C157.244 75.8016 156.984 75.6834 156.71 75.5504C156.433 75.4174 156.147 75.2807 155.851 75.1403C156.121 74.5751 156.396 74.0579 156.655 73.5961C156.918 73.1307 157.144 72.7576 157.336 72.4768C157.529 72.196 157.677 72.0224 157.784 71.9522C157.896 71.8894 157.936 71.9744 157.918 72.2145Z" fill="#FBFBFB"/>
<path d="M168.083 73.5962C167.839 73.4041 167.513 73.3339 167.105 73.3967C166.857 73.4374 166.638 73.5039 166.453 73.5962C166.272 73.6923 166.12 73.7846 165.998 73.8844C165.85 74.0026 165.72 74.1282 165.616 74.2538C165.676 74.287 165.731 74.3166 165.779 74.3609C165.816 74.4052 165.85 74.4606 165.872 74.5271C165.898 74.59 165.909 74.6712 165.905 74.7562L165.738 76.1415C165.657 76.5589 165.55 76.9468 165.42 77.3052C165.29 77.6672 165.153 77.9812 165.009 78.2435C164.861 78.5058 164.72 78.7237 164.575 78.8789C164.431 79.0414 164.312 79.1264 164.216 79.1449C164.064 79.167 163.975 79.119 163.95 78.9934C163.927 78.8678 163.916 78.7644 163.924 78.6757L164.357 74.9852C164.39 74.686 164.283 74.4385 164.035 74.239C163.787 74.0395 163.457 73.9767 163.053 74.0395C162.805 74.0765 162.587 74.1466 162.409 74.239C162.224 74.3314 162.072 74.4274 161.946 74.5235C161.798 74.6491 161.668 74.771 161.564 74.8966C161.627 74.9224 161.683 74.9594 161.731 75.0037C161.768 75.048 161.794 75.0997 161.824 75.1662C161.846 75.2364 161.857 75.3103 161.849 75.4027L161.587 77.6192L161.546 77.959C161.524 78.2546 161.538 78.5279 161.583 78.7902C161.598 78.8604 161.609 78.9232 161.627 78.9934C161.716 79.3148 161.853 79.5882 162.046 79.8135C162.238 80.0389 162.49 80.2051 162.794 80.3122C163.094 80.412 163.45 80.4379 163.853 80.3714C164.112 80.3307 164.472 80.2088 164.927 80.0093C165.383 79.8098 165.842 79.518 166.298 79.1338C166.753 78.7533 167.168 78.2767 167.542 77.7115C167.916 77.1463 168.157 76.474 168.261 75.7019L168.413 74.3498C168.446 74.0469 168.335 73.7994 168.087 73.5999L168.083 73.5962Z" fill="#FBFBFB"/>
<path d="M175.293 75.947C175.223 75.9212 175.149 75.9212 175.067 75.947C175.045 75.9544 175.023 75.9655 174.997 75.984C174.952 76.0098 174.915 76.0578 174.882 76.117C174.789 76.298 174.675 76.479 174.526 76.6748C174.378 76.8632 174.212 77.0442 174.034 77.203C173.849 77.3656 173.66 77.5023 173.463 77.6168C173.267 77.7313 173.063 77.8052 172.863 77.8384C172.786 77.8532 172.66 77.8458 172.486 77.8347C172.312 77.8163 172.134 77.7572 171.96 77.6537C171.786 77.5577 171.634 77.3951 171.497 77.1846C171.363 76.9666 171.308 76.6637 171.326 76.2795C171.445 76.2943 171.578 76.2869 171.734 76.2758C171.882 76.261 172.03 76.2315 172.167 76.1797C172.404 76.1022 172.634 75.995 172.86 75.8547C173.082 75.718 173.278 75.5554 173.456 75.3707C173.626 75.186 173.771 74.9791 173.875 74.7501C173.982 74.5211 174.026 74.2772 174.012 74.015C174.015 73.7674 173.956 73.5495 173.837 73.3611C173.719 73.1727 173.567 73.0249 173.371 72.9104C173.182 72.7996 172.975 72.722 172.752 72.674C172.526 72.6333 172.308 72.6296 172.097 72.6592C171.671 72.7294 171.274 72.8624 170.911 73.0692C170.541 73.2761 170.219 73.5495 169.937 73.8894C169.656 74.2292 169.43 74.6356 169.263 75.1084C169.097 75.5813 169.008 76.1206 168.997 76.7228C168.989 77.0479 169.056 77.373 169.2 77.6907C169.348 78.0084 169.556 78.2854 169.826 78.5145C170.104 78.7509 170.434 78.9208 170.826 79.028C171.219 79.1388 171.656 79.1536 172.137 79.0797C172.482 79.0243 172.826 78.9135 173.152 78.7583C173.486 78.5957 173.789 78.4 174.067 78.1598C174.345 77.9234 174.597 77.6685 174.823 77.3841C174.826 77.3804 174.83 77.3767 174.83 77.3693C175.052 77.0922 175.226 76.8041 175.356 76.5048C175.43 76.3423 175.452 76.2204 175.43 76.128C175.408 76.0394 175.356 75.9803 175.293 75.9544V75.947ZM171.637 74.6356C171.737 74.3844 171.841 74.1812 171.945 74.0223C172.045 73.8709 172.149 73.7601 172.245 73.6862C172.341 73.616 172.419 73.579 172.482 73.5717C172.537 73.5643 172.582 73.5901 172.612 73.6529C172.645 73.7157 172.663 73.8007 172.667 73.9115C172.689 74.1036 172.663 74.2883 172.589 74.4693C172.512 74.6504 172.415 74.8129 172.289 74.9607C172.163 75.1084 172.023 75.2377 171.86 75.3412C171.697 75.452 171.545 75.5333 171.393 75.585C171.452 75.2045 171.53 74.8868 171.637 74.6319V74.6356Z" fill="#FBFBFB"/>
<path d="M180.668 72.7323C180.635 72.4885 180.568 72.2668 180.45 72.071C180.331 71.8752 180.168 71.7164 179.961 71.6018C179.749 71.4873 179.479 71.4578 179.153 71.5095C178.987 71.5317 178.838 71.6055 178.705 71.7275C178.572 71.8494 178.446 71.9971 178.331 72.1781C178.216 72.3592 178.109 72.566 178.009 72.7988C177.909 73.0278 177.82 73.279 177.742 73.5339L177.831 72.8727C177.857 72.5586 177.753 72.3111 177.505 72.119C177.257 71.9269 176.935 71.8604 176.527 71.9269C176.279 71.9676 176.061 72.0341 175.875 72.1264C175.694 72.2225 175.538 72.3148 175.42 72.4146C175.272 72.5328 175.142 72.6584 175.031 72.784C175.094 72.8172 175.149 72.8468 175.198 72.8948C175.235 72.9355 175.268 72.9909 175.29 73.0574C175.316 73.1202 175.327 73.2014 175.323 73.2864L175.001 75.9869L174.835 77.3685L174.82 77.5015C174.794 77.8007 174.898 78.0482 175.146 78.2477C175.394 78.4472 175.723 78.5137 176.123 78.4509C176.368 78.4102 176.586 78.3438 176.775 78.2477C176.968 78.1553 177.127 78.0593 177.249 77.9632C177.398 77.8487 177.527 77.7231 177.631 77.5901C177.568 77.5643 177.512 77.5273 177.464 77.483C177.42 77.4424 177.383 77.3906 177.353 77.3315C177.32 77.2724 177.316 77.1875 177.331 77.0914L177.486 75.7652C177.549 75.4216 177.624 75.0892 177.709 74.7752C177.79 74.4612 177.879 74.1878 177.968 73.944C178.061 73.7038 178.157 73.5154 178.257 73.3788C178.357 73.2347 178.457 73.1719 178.557 73.1719C178.594 73.1756 178.635 73.2088 178.668 73.2679C178.701 73.3233 178.72 73.4009 178.727 73.4933C178.731 73.5856 178.724 73.6854 178.701 73.7999C178.679 73.9107 178.642 74.0179 178.59 74.1139C178.527 74.21 178.501 74.306 178.527 74.402C178.546 74.4981 178.59 74.5831 178.661 74.6606C178.735 74.7382 178.831 74.7936 178.946 74.8306C179.064 74.8675 179.205 74.8712 179.357 74.849C179.735 74.7899 180.031 74.6126 180.246 74.3282C180.457 74.0437 180.598 73.7334 180.653 73.3972C180.69 73.194 180.694 72.9724 180.668 72.736V72.7323Z" fill="#FBFBFB"/>
<path d="M188.937 73.6795C188.866 73.6536 188.792 73.6536 188.714 73.6832C188.637 73.7127 188.57 73.7755 188.525 73.8642C188.455 73.9898 188.388 74.1043 188.314 74.2151C188.151 74.4589 187.974 74.6806 187.781 74.8764C187.496 75.1608 187.237 75.3234 187.007 75.3603C186.892 75.3788 186.814 75.3603 186.77 75.3086C186.725 75.2532 186.707 75.1941 186.7 75.1239L187.114 71.6624C187.022 71.4002 186.874 71.1785 186.666 70.9938C186.474 70.8386 186.203 70.7093 185.862 70.6022C185.522 70.5025 185.059 70.4914 184.485 70.5837C184.059 70.6539 183.651 70.7906 183.251 71.0012C182.855 71.2081 182.499 71.4888 182.185 71.8324C181.87 72.1759 181.614 72.586 181.418 73.0699C181.225 73.5502 181.118 74.0858 181.103 74.688C181.099 75.0131 181.125 75.3456 181.196 75.6854C181.266 76.0216 181.385 76.3208 181.555 76.5831C181.722 76.8417 181.944 77.0375 182.21 77.1779C182.481 77.3219 182.807 77.3589 183.192 77.2961C183.499 77.2444 183.755 77.1114 183.959 76.886C184.159 76.6607 184.355 76.4132 184.548 76.1361C184.57 76.2987 184.629 76.4316 184.722 76.5351C184.811 76.6422 184.914 76.7198 185.029 76.7752C185.148 76.8306 185.27 76.8676 185.399 76.886C185.525 76.9045 185.636 76.9082 185.733 76.8934C186.077 76.838 186.422 76.7198 186.755 76.5425C187.092 76.3688 187.411 76.1546 187.7 75.9108C187.988 75.6669 188.248 75.401 188.474 75.1017C188.481 75.087 188.492 75.0759 188.507 75.0611C188.714 74.7803 188.877 74.4996 188.992 74.2188C189.066 74.0563 189.088 73.9344 189.066 73.842C189.044 73.7534 188.996 73.6943 188.929 73.6684L188.937 73.6795ZM184.799 72.6488L184.522 74.9392C184.385 75.1017 184.262 75.2273 184.166 75.3345C184.07 75.4342 183.948 75.4785 183.807 75.449C183.64 75.4157 183.51 75.2938 183.414 75.0759C183.314 74.8579 183.281 74.4996 183.307 73.9898C183.329 73.5945 183.388 73.2583 183.477 72.9813C183.57 72.7042 183.67 72.4789 183.792 72.3052C183.911 72.1242 184.036 71.9986 184.166 71.9063C184.296 71.8176 184.411 71.7548 184.518 71.7179C184.722 71.6477 184.825 71.7031 184.833 71.8841C184.836 72.0651 184.825 72.32 184.799 72.6488Z" fill="#FBFBFB"/>
<path d="M196.23 72.7671C196.208 72.6747 196.16 72.6193 196.093 72.5971C196.03 72.575 195.956 72.575 195.871 72.6008C195.793 72.6267 195.738 72.6821 195.701 72.7707C195.664 72.8299 195.63 72.889 195.593 72.9444C195.382 73.2953 195.178 73.5946 194.986 73.8458C194.756 74.145 194.445 74.4073 194.06 74.6363C194.064 74.6031 194.075 74.5181 194.093 74.374C194.108 74.2263 194.13 74.0415 194.153 73.8236C194.175 73.6056 194.208 73.3581 194.241 73.0884C194.278 72.8188 194.315 72.5306 194.341 72.2388C194.375 71.9432 194.404 71.6514 194.441 71.3596C194.475 71.0714 194.501 70.798 194.534 70.5505C194.404 70.2919 194.212 70.0777 193.956 69.9004C193.734 69.7489 193.441 69.6233 193.071 69.5236C192.708 69.4238 192.238 69.4164 191.66 69.5088C191.234 69.579 190.827 69.7157 190.427 69.9262C190.03 70.1331 189.675 70.4139 189.36 70.7574C189.041 71.101 188.789 71.5147 188.593 71.995C188.393 72.4752 188.293 73.0109 188.278 73.613C188.275 73.8125 188.282 74.0083 188.312 74.2078C188.326 74.3371 188.345 74.4701 188.371 74.5994C188.404 74.7656 188.449 74.9208 188.515 75.0685C188.571 75.2126 188.641 75.3456 188.723 75.4638C188.889 75.7113 189.112 75.9071 189.378 76.0401C189.645 76.1768 189.975 76.2137 190.356 76.1509C190.608 76.114 190.823 76.0216 190.997 75.8812C191.171 75.7446 191.338 75.5672 191.504 75.3678L191.412 76.1805C190.982 76.4428 190.641 76.6866 190.393 76.9045C190.149 77.1225 189.964 77.322 189.841 77.5178C189.723 77.7062 189.652 77.8909 189.634 78.0608C189.615 78.2308 189.619 78.397 189.649 78.5558C189.689 78.8255 189.782 79.0398 189.919 79.1986C190.056 79.3575 190.219 79.4794 190.404 79.557C190.589 79.6345 190.793 79.6826 191.004 79.69C191.215 79.7047 191.43 79.69 191.627 79.6567C192.071 79.5865 192.423 79.4646 192.686 79.2836C192.949 79.1026 193.156 78.8514 193.319 78.5189C193.482 78.1864 193.601 77.7764 193.69 77.285C193.771 76.7937 193.86 76.2026 193.945 75.5081C194.456 75.183 194.901 74.8358 195.275 74.4775C195.504 74.2521 195.708 73.9935 195.882 73.7017C195.99 73.5281 196.086 73.3396 196.171 73.1365C196.234 72.9739 196.253 72.852 196.23 72.7634V72.7671ZM191.193 77.7653C191.16 77.9315 191.115 78.0793 191.056 78.2123C191.001 78.3416 190.923 78.4155 190.827 78.4339C190.701 78.4524 190.619 78.4265 190.578 78.3564C190.538 78.2825 190.523 78.2123 190.534 78.1532C190.538 78.0461 190.567 77.9352 190.623 77.8318C190.682 77.721 190.752 77.6249 190.834 77.5326C190.915 77.4402 191.004 77.3589 191.086 77.2924C191.167 77.2222 191.238 77.1779 191.289 77.1484C191.271 77.3774 191.238 77.5843 191.197 77.7653H191.193ZM191.967 71.5775L191.682 73.8642C191.549 74.0268 191.434 74.1524 191.338 74.2521C191.241 74.3519 191.119 74.3888 190.978 74.3629C190.815 74.3408 190.689 74.2189 190.589 74.0046C190.489 73.7866 190.456 73.4283 190.482 72.9185C190.504 72.5232 190.564 72.1871 190.652 71.91C190.741 71.6329 190.845 71.4076 190.967 71.234C191.089 71.0603 191.212 70.92 191.341 70.8276C191.471 70.7316 191.586 70.6651 191.686 70.6281C191.893 70.569 192.001 70.6244 192.001 70.798C192.004 70.9791 191.997 71.234 191.967 71.5738V71.5775Z" fill="#FBFBFB"/>
<path d="M201.987 71.9191C201.964 71.8268 201.916 71.7677 201.849 71.7381C201.779 71.7123 201.705 71.7123 201.627 71.7381C201.549 71.764 201.483 71.8194 201.438 71.9081C201.349 72.0891 201.231 72.2775 201.083 72.4659C200.935 72.658 200.775 72.8353 200.59 72.9941C200.409 73.1567 200.22 73.2934 200.023 73.4079C199.82 73.5224 199.623 73.5963 199.42 73.6295C199.342 73.6443 199.216 73.6369 199.042 73.6258C198.868 73.6074 198.69 73.5483 198.52 73.4522C198.346 73.3525 198.194 73.1899 198.057 72.9794C197.923 72.7614 197.864 72.4585 197.883 72.0743C198.001 72.0891 198.142 72.0817 198.29 72.0706C198.442 72.0558 198.586 72.0263 198.727 71.9745C198.964 71.897 199.19 71.7898 199.416 71.6531C199.642 71.5091 199.842 71.3502 200.012 71.1655C200.186 70.9808 200.327 70.7739 200.431 70.5449C200.538 70.3195 200.586 70.072 200.575 69.8097C200.575 69.5622 200.516 69.3443 200.401 69.1559C200.283 68.9675 200.124 68.8197 199.935 68.7052C199.746 68.5944 199.538 68.5168 199.312 68.4688C199.086 68.4281 198.868 68.4244 198.657 68.454C198.231 68.5242 197.842 68.6572 197.472 68.864C197.109 69.0709 196.779 69.3443 196.497 69.6841C196.216 70.024 195.994 70.4304 195.827 70.9032C195.66 71.3835 195.568 71.9191 195.557 72.5213C195.557 72.6654 195.564 72.8094 195.597 72.9535C195.631 73.1271 195.686 73.3081 195.764 73.4818C195.801 73.5593 195.838 73.6369 195.883 73.7108C196.016 73.9325 196.186 74.1356 196.39 74.3056C196.66 74.542 196.997 74.7119 197.39 74.8191C197.783 74.9299 198.216 74.9447 198.701 74.8708C199.046 74.8154 199.383 74.7082 199.716 74.5494C200.042 74.3868 200.349 74.1911 200.631 73.9509C200.909 73.7145 201.161 73.4596 201.386 73.1752C201.612 72.8944 201.786 72.5989 201.916 72.2959C201.99 72.1334 202.016 72.0115 201.99 71.9228L201.987 71.9191ZM198.19 70.4267C198.29 70.1755 198.398 69.9723 198.498 69.8208C198.605 69.6657 198.705 69.5548 198.801 69.4847C198.898 69.4108 198.975 69.3738 199.031 69.3664C199.09 69.3591 199.131 69.3849 199.164 69.4477C199.19 69.5105 199.209 69.5955 199.22 69.7063C199.238 69.8984 199.212 70.0831 199.138 70.2641C199.064 70.4451 198.964 70.6077 198.838 70.7555C198.712 70.9032 198.572 71.0325 198.412 71.1433C198.249 71.2505 198.094 71.3318 197.946 71.3835C198.001 71.003 198.083 70.6853 198.186 70.4304L198.19 70.4267Z" fill="#FBFBFB"/>
<path d="M172.435 82.358C172.375 82.2509 172.297 82.1659 172.205 82.1068C172.109 82.044 172.001 81.996 171.883 81.9738C171.768 81.9479 171.642 81.9479 171.52 81.9664C171.049 82.0366 170.549 82.2065 170.023 82.4873C169.497 82.7644 168.994 83.1005 168.52 83.4995C168.046 83.8948 167.62 84.3381 167.253 84.8146C166.883 85.2949 166.631 85.7714 166.482 86.2443C166.368 86.6174 166.32 86.9905 166.334 87.3636C166.353 87.7367 166.427 88.0692 166.564 88.3537C166.697 88.6418 166.89 88.8635 167.134 89.0223C167.379 89.1775 167.668 89.2292 168.001 89.1775C168.397 89.1221 168.679 88.9965 168.86 88.8081C169.034 88.6233 169.142 88.4312 169.179 88.2318C169.216 88.0323 169.197 87.8587 169.127 87.7072C169.057 87.5557 168.975 87.4855 168.883 87.5003C168.768 87.589 168.653 87.6001 168.531 87.552C168.408 87.504 168.32 87.4006 168.246 87.2454C168.168 87.0903 168.131 86.8908 168.131 86.6433C168.127 86.3958 168.19 86.1224 168.316 85.8231C168.516 85.3577 168.79 84.9292 169.149 84.5339C169.512 84.1423 169.916 83.8098 170.364 83.5401L169.568 90.0345C169.357 90.1084 169.116 90.2266 168.842 90.3929C168.575 90.5628 168.297 90.766 168.016 91.0098C167.734 91.2499 167.468 91.5196 167.205 91.8225C166.942 92.1254 166.712 92.4468 166.516 92.7904C166.323 93.1266 166.179 93.4812 166.082 93.8469C165.99 94.2163 165.968 94.5821 166.023 94.9515C166.12 95.6201 166.386 96.1189 166.827 96.455C167.268 96.7912 167.868 96.902 168.638 96.7912C169.038 96.7321 169.39 96.5548 169.694 96.2629C169.997 95.9748 170.253 95.6238 170.464 95.2175C170.672 94.8111 170.842 94.3789 170.972 93.9171C171.097 93.4553 171.19 93.0194 171.238 92.6168C171.246 92.6094 171.264 92.4542 171.309 92.1661C171.346 91.8705 171.397 91.4937 171.453 91.0246C171.512 90.5554 171.583 90.0271 171.657 89.4435C171.734 88.8561 171.812 88.2576 171.894 87.637L172.509 82.7422C172.516 82.5944 172.494 82.4725 172.438 82.3654L172.435 82.358ZM169.349 91.6969C169.327 91.8225 169.297 91.9814 169.268 92.1845C169.242 92.384 169.197 92.602 169.149 92.8458C169.097 93.0896 169.038 93.3334 168.968 93.5809C168.897 93.8285 168.82 94.0538 168.727 94.2607C168.638 94.4639 168.534 94.6375 168.412 94.7816C168.294 94.9182 168.16 95.0032 168.005 95.0254C167.857 95.0475 167.723 95.0032 167.608 94.8887C167.494 94.7705 167.416 94.5673 167.368 94.2755C167.331 94.0169 167.375 93.7287 167.501 93.4073C167.631 93.0859 167.801 92.7719 168.012 92.4653C168.22 92.1587 168.457 91.8668 168.72 91.6009C168.979 91.3349 169.22 91.1206 169.446 90.9692L169.349 91.6969Z" fill="#FBFBFB"/>
<path d="M178.049 88.1406C177.941 87.8044 177.771 87.52 177.541 87.2835C177.312 87.0471 177.027 86.8735 176.678 86.7627C176.33 86.6518 175.941 86.6297 175.493 86.6925C175.093 86.7516 174.715 86.8846 174.349 87.1025C173.99 87.3205 173.671 87.5828 173.393 87.8894C173.123 88.196 172.897 88.5433 172.715 88.9201C172.534 89.3006 172.434 89.6848 172.401 90.0764C172.364 90.4642 172.408 90.8263 172.53 91.1624C172.656 91.4986 172.834 91.7831 173.078 92.0121C173.323 92.2485 173.612 92.4185 173.949 92.5219C174.286 92.6327 174.656 92.6549 175.056 92.5958C175.456 92.5404 175.834 92.4037 176.201 92.1968C176.56 91.9862 176.878 91.724 177.156 91.4136C177.434 91.107 177.653 90.7598 177.83 90.383C178.008 90.0062 178.112 89.6183 178.149 89.2267C178.186 88.8388 178.153 88.4768 178.049 88.1369V88.1406ZM176.004 89.6257C175.971 89.8658 175.927 90.1059 175.867 90.3349C175.808 90.564 175.73 90.7709 175.641 90.9519C175.552 91.1255 175.456 91.2733 175.356 91.3878C175.249 91.4986 175.145 91.5577 175.034 91.554C174.934 91.5614 174.841 91.5134 174.756 91.41C174.675 91.3102 174.604 91.1698 174.549 90.9925C174.493 90.8189 174.452 90.6194 174.43 90.3977C174.404 90.1761 174.408 89.9434 174.438 89.6995C174.464 89.4557 174.508 89.2193 174.571 88.9903C174.634 88.7612 174.715 88.5543 174.801 88.3733C174.89 88.1923 174.986 88.0482 175.086 87.9374C175.193 87.8229 175.293 87.7638 175.393 87.7564C175.493 87.7564 175.593 87.8081 175.678 87.9042C175.76 88.0039 175.834 88.1406 175.897 88.3142C175.956 88.4878 175.997 88.691 176.012 88.9164C176.03 89.1454 176.027 89.3818 176.004 89.6257Z" fill="#FBFBFB"/>
<path d="M184.216 88.8661C184.157 88.8439 184.09 88.8402 184.024 88.8624C183.953 88.8845 183.898 88.9363 183.861 89.0101C183.783 89.1653 183.676 89.3279 183.546 89.4904C183.416 89.6566 183.268 89.8081 183.113 89.9448C182.95 90.0815 182.787 90.2034 182.613 90.2994C182.439 90.3955 182.261 90.462 182.087 90.4841C182.024 90.4915 181.913 90.4915 181.761 90.4767C181.609 90.462 181.457 90.4065 181.309 90.3216C181.157 90.2329 181.027 90.0962 180.913 89.9078C180.801 89.7194 180.757 89.4571 180.776 89.121C180.876 89.1357 180.998 89.1357 181.127 89.121C181.261 89.1136 181.387 89.084 181.505 89.0434C181.713 88.9806 181.913 88.8882 182.105 88.7663C182.305 88.6481 182.479 88.5077 182.631 88.3526C182.783 88.19 182.902 88.0164 183.002 87.8206C183.094 87.6211 183.139 87.4106 183.131 87.1815C183.135 86.971 183.087 86.7826 182.983 86.6163C182.883 86.4501 182.746 86.3208 182.587 86.221C182.42 86.1213 182.242 86.0511 182.046 86.0105C181.853 85.9735 181.664 85.9661 181.483 85.992C181.113 86.0474 180.768 86.1619 180.45 86.3356C180.127 86.5092 179.846 86.7456 179.598 87.0338C179.35 87.3219 179.15 87.6766 179.001 88.0866C178.853 88.4967 178.772 88.9621 178.753 89.4867C178.746 89.7675 178.798 90.0482 178.924 90.3253C179.042 90.6023 179.224 90.8388 179.457 91.042C179.694 91.2488 179.979 91.4003 180.32 91.4963C180.657 91.5961 181.035 91.6146 181.453 91.5554C181.753 91.5111 182.05 91.4225 182.335 91.2858C182.624 91.1528 182.887 90.9828 183.131 90.7797C183.376 90.5765 183.598 90.3548 183.794 90.111C183.994 89.8709 184.15 89.6197 184.265 89.3537C184.327 89.217 184.353 89.1099 184.335 89.0323C184.316 88.9547 184.276 88.903 184.216 88.8772V88.8661ZM181.057 87.6913C181.15 87.4734 181.242 87.2997 181.335 87.1667C181.427 87.0338 181.516 86.9377 181.598 86.8786C181.687 86.8195 181.753 86.7862 181.801 86.7789C181.853 86.7752 181.89 86.7973 181.916 86.8527C181.939 86.9082 181.957 86.9857 181.961 87.0781C181.976 87.2443 181.953 87.4032 181.883 87.562C181.82 87.7172 181.731 87.8576 181.62 87.9869C181.509 88.1125 181.383 88.2233 181.246 88.3193C181.109 88.4117 180.968 88.4819 180.839 88.5225C180.894 88.19 180.964 87.9204 181.057 87.6987V87.6913Z" fill="#FBFBFB"/>
<path d="M184.182 82.5072C184.178 83.427 184.045 84.7754 183.874 85.5512L184.567 85.3628C184.834 84.7384 185.174 83.3162 185.311 82.2264L184.185 82.5072H184.182Z" fill="#FBFBFB"/>
<path d="M190.325 87.6009C190.106 87.394 189.877 87.213 189.628 87.0578C189.38 86.9027 189.154 86.7549 188.951 86.6145C188.743 86.4705 188.628 86.3116 188.599 86.1269C188.584 86.0161 188.595 85.9163 188.625 85.824C188.658 85.7279 188.703 85.6503 188.762 85.5801C188.817 85.51 188.888 85.4545 188.962 85.4139C189.036 85.3733 189.11 85.3511 189.173 85.34C189.358 85.3142 189.473 85.3326 189.525 85.3954C189.569 85.4582 189.599 85.51 189.603 85.5432C189.606 85.5802 189.588 85.6134 189.547 85.6503C189.506 85.6873 189.466 85.7279 189.417 85.7686C189.373 85.8129 189.328 85.8646 189.291 85.9163C189.251 85.9717 189.236 86.0308 189.251 86.1084C189.269 86.2525 189.347 86.367 189.477 86.4483C189.61 86.5369 189.766 86.5665 189.951 86.5406C190.01 86.5332 190.088 86.5074 190.188 86.4778C190.284 86.4409 190.377 86.3892 190.466 86.3227C190.554 86.2525 190.629 86.1675 190.677 86.0604C190.732 85.9533 190.747 85.8314 190.729 85.6873C190.706 85.5506 190.647 85.4102 190.554 85.2883C190.458 85.159 190.325 85.0519 190.154 84.9706C189.984 84.8819 189.777 84.8228 189.532 84.7896C189.288 84.7563 189.003 84.7674 188.68 84.8118C188.354 84.8561 188.058 84.9595 187.784 85.0999C187.517 85.2477 187.288 85.4176 187.095 85.6134C186.906 85.8129 186.769 86.0271 186.669 86.2562C186.577 86.4926 186.543 86.7106 186.577 86.9285C186.628 87.2647 186.747 87.5418 186.94 87.756C187.14 87.9777 187.34 88.1624 187.562 88.3139C187.78 88.4653 187.977 88.5983 188.158 88.7128C188.34 88.8236 188.436 88.9419 188.454 89.0564C188.477 89.2226 188.44 89.3704 188.34 89.4886C188.24 89.6068 188.117 89.6807 187.977 89.6992C187.884 89.7139 187.777 89.6807 187.669 89.6068C187.554 89.5292 187.488 89.4369 187.477 89.3261C187.462 89.2633 187.484 89.1931 187.536 89.1266C187.58 89.0564 187.599 88.9603 187.58 88.8384C187.562 88.7128 187.499 88.5946 187.388 88.4764C187.277 88.3619 187.117 88.3212 186.906 88.3508C186.702 88.3766 186.532 88.4764 186.395 88.6389C186.262 88.8052 186.214 89.0453 186.262 89.363C186.288 89.5551 186.358 89.7398 186.48 89.9134C186.595 90.0871 186.743 90.2348 186.925 90.3493C187.106 90.4676 187.314 90.5562 187.551 90.6116C187.788 90.6671 188.04 90.6707 188.306 90.6338C188.658 90.5821 188.988 90.4823 189.299 90.3383C189.603 90.1942 189.869 90.0243 190.095 89.8174C190.321 89.6142 190.491 89.3889 190.606 89.1376C190.717 88.8901 190.754 88.6279 190.714 88.3619C190.673 88.0553 190.54 87.7967 190.325 87.5898V87.6009Z" fill="#FBFBFB"/>
<path d="M184.38 96.4003C184.269 96.4705 184.135 96.5 183.983 96.5C183.82 96.5 183.68 96.4631 183.554 96.3892C183.428 96.3153 183.332 96.2045 183.257 96.0678C183.187 95.9311 183.157 95.7686 183.157 95.5876C183.157 95.4065 183.191 95.244 183.257 95.1036C183.332 94.9669 183.428 94.8598 183.554 94.7859C183.68 94.712 183.82 94.6751 183.983 94.6751C184.135 94.6751 184.269 94.7083 184.38 94.7711C184.495 94.8339 184.587 94.9374 184.646 95.0667H185.287C185.195 94.7896 185.028 94.5717 184.798 94.4128C184.569 94.254 184.295 94.1727 183.987 94.1727C183.724 94.1727 183.483 94.2318 183.272 94.3537C183.061 94.4719 182.895 94.6418 182.769 94.8561C182.643 95.0741 182.583 95.3179 182.583 95.5876C182.583 95.8572 182.643 96.101 182.769 96.3153C182.895 96.5296 183.057 96.6958 183.272 96.8177C183.483 96.9359 183.724 96.9987 183.987 96.9987C184.302 96.9987 184.569 96.9212 184.798 96.7623C185.035 96.5998 185.195 96.3855 185.287 96.1047H184.646C184.587 96.234 184.495 96.3338 184.38 96.4003Z" fill="#FBFBFB"/>
<path d="M188.867 94.8574C188.737 94.6468 188.567 94.4769 188.356 94.355C188.137 94.2367 187.9 94.1703 187.641 94.1703C187.382 94.1703 187.141 94.233 186.926 94.355C186.708 94.4732 186.537 94.6431 186.415 94.8574C186.285 95.0753 186.222 95.3191 186.222 95.5851C186.222 95.8511 186.285 96.0986 186.415 96.3166C186.541 96.5271 186.711 96.6971 186.926 96.819C187.145 96.9372 187.382 97 187.641 97C187.9 97 188.134 96.9409 188.352 96.819C188.571 96.7008 188.741 96.5308 188.867 96.3166C188.993 96.0986 189.052 95.8548 189.052 95.5851C189.052 95.3155 188.993 95.0753 188.867 94.8574ZM188.378 96.0728C188.304 96.2094 188.208 96.3166 188.078 96.3942C187.952 96.468 187.808 96.505 187.641 96.505C187.474 96.505 187.326 96.468 187.197 96.3942C187.067 96.3166 186.971 96.2094 186.897 96.0728C186.826 95.9287 186.789 95.7698 186.789 95.5851C186.789 95.4004 186.826 95.2416 186.897 95.1012C186.971 94.9645 187.067 94.8574 187.197 94.7835C187.326 94.7096 187.474 94.6727 187.641 94.6727C187.808 94.6727 187.956 94.7096 188.078 94.7835C188.208 94.8574 188.304 94.9645 188.378 95.1012C188.448 95.2379 188.485 95.4004 188.485 95.5851C188.485 95.7698 188.448 95.9287 188.378 96.0728Z" fill="#FBFBFB"/>
<path d="M191.77 94.6609V94.2139H190.058V96.9698H190.618V95.8061H191.499V95.3702H190.618V94.6609H191.77Z" fill="#FBFBFB"/>
<path d="M194.462 94.6609V94.2139H192.751V96.9698H193.311V95.8061H194.192V95.3702H193.311V94.6609H194.462Z" fill="#FBFBFB"/>
<path d="M197.049 94.6616V94.2109H195.445V96.9705H197.049V96.5235H196.001V95.792H196.927V95.3487H196.001V94.6579H197.049V94.6616Z" fill="#FBFBFB"/>
<path d="M199.754 94.6616V94.2109H198.15V96.9705H199.754V96.5235H198.702V95.792H199.635V95.3487H198.702V94.6579H199.754V94.6616Z" fill="#FBFBFB"/>
<path d="M26.7793 23.2756C26.7793 25.2471 25.6794 27.1867 23.4797 29.0946C21.3119 31.0024 18.6658 32.5287 15.5416 33.6734C12.4492 34.7863 9.50028 35.3427 6.69483 35.3427C5.48338 35.3427 4.06472 34.6114 2.43883 33.1487C0.812943 31.6542 0 30.43 0 29.4761C0 28.9356 0.11158 28.5063 0.334741 28.1883C0.589782 27.8704 0.876704 27.7114 1.1955 27.7114C1.51431 27.7114 2.21567 27.9816 3.29959 28.5222C4.4154 29.031 5.24428 29.2853 5.78624 29.2853C6.36009 29.2853 6.91799 29.2376 7.45995 29.1423C6.66295 28.8243 5.86594 28.2678 5.06894 27.4729C4.27194 26.678 3.87344 25.9148 3.87344 25.1835C3.87344 24.8655 4.39946 22.5602 5.4515 18.2676C6.50355 13.9431 7.06145 10.2546 7.12521 7.2021C6.55137 6.66154 6.02534 6.0097 5.54714 5.24656C5.10082 4.45163 4.87766 3.86337 4.87766 3.48181C4.87766 2.59148 5.57902 1.87604 6.98175 1.33549C8.38447 0.794932 10.1379 0.524655 12.242 0.524655C16.7052 0.524655 20.2758 1.11291 22.9537 2.28941C25.6635 3.46591 27.0184 5.34195 27.0184 7.91754C27.0184 9.5392 26.333 11.1927 24.9621 12.8779C23.5913 14.5632 21.7901 16.1053 19.5585 17.5044L20.0367 17.6475C21.9495 18.1563 23.5435 18.9194 24.8187 19.9369C26.1258 20.9226 26.7793 22.0355 26.7793 23.2756ZM18.3151 6.62974C17.3269 6.62974 14.9996 6.97951 11.3334 7.67906C12.4811 8.95095 13.0549 10.0162 13.0549 10.8747C13.0549 11.7014 12.7839 13.2436 12.242 15.5012C12.7521 15.1196 13.6606 14.5632 14.9677 13.8318C16.2748 13.1005 17.0877 12.6235 17.4066 12.401C17.7572 12.1466 18.2195 11.7809 18.7933 11.304C19.8773 10.4454 20.4192 9.45971 20.4192 8.3468C20.4192 7.2021 19.7179 6.62974 18.3151 6.62974ZM20.754 23.0849C20.754 22.4489 19.8294 21.9084 17.9804 21.4632C16.1632 20.9862 14.6489 20.7478 13.4375 20.7478C12.768 20.7478 12.0507 20.2549 11.2856 19.2692C9.85096 25.1517 8.9902 28.3791 8.70328 28.9515C11.3812 28.3791 14.0591 27.5047 16.7371 26.3282C19.415 25.1517 20.754 24.0706 20.754 23.0849Z" fill="white"/>
<path d="M53.9423 17.1706C55.2175 17.1706 56.1261 17.2977 56.668 17.5521C57.2419 17.7747 57.5288 18.204 57.5288 18.8399C57.5288 19.6984 56.142 20.5729 53.3685 21.4632C53.4322 23.8798 53.4641 26.201 53.4641 28.4268C53.4641 30.6208 53.2888 32.2743 52.9381 33.3872C52.5874 34.4683 52.0295 35.0089 51.2644 35.0089C50.4992 35.0089 49.8935 34.6273 49.4472 33.8642C49.0328 33.0692 48.6821 31.7814 48.3952 30.0008C48.1401 28.2201 47.8691 25.8671 47.5822 22.9418C44.3304 23.6731 41.9872 24.2614 40.5526 24.7065C38.066 31.5747 36.4082 35.0089 35.5793 35.0089C34.9099 35.0089 34.0172 34.5637 32.9014 33.6734C31.8175 32.783 31.2755 31.8609 31.2755 30.907C31.2755 30.3664 31.8972 28.6812 33.1405 25.8512C32.5986 25.5015 32.1203 25.0086 31.7059 24.3727C31.3233 23.7049 31.1321 23.069 31.1321 22.4648C31.1321 21.4155 32.7101 20.4139 35.8663 19.46C36.1213 18.824 36.3763 18.1086 36.6314 17.3136C36.9183 16.4869 37.6037 14.5791 38.6877 11.5901C39.8035 8.60118 40.6802 6.10509 41.3178 4.10185C41.6047 3.14793 42.593 2.25761 44.2826 1.43088C46.0041 0.604149 47.3431 0.190784 48.2995 0.190784C49.4153 0.190784 50.4036 1.73295 51.2644 4.8173C52.157 7.90164 52.7787 12.0194 53.1294 17.1706H53.9423ZM42.8958 17.9814C43.8522 17.8542 45.239 17.6952 47.0562 17.5044C46.9605 16.5823 46.8011 15.0083 46.578 12.7825C46.3867 10.5567 46.2432 8.95095 46.1476 7.96523C45.6056 9.74588 44.5217 13.0846 42.8958 17.9814Z" fill="white"/>
<path d="M86.837 33.3395C86.837 34.6432 85.9284 35.295 84.1112 35.295C81.6246 35.295 79.0104 34.0072 76.2687 31.4317C73.5589 28.8561 71.6302 26.1692 70.4825 23.371C69.9724 24.8973 69.6217 25.9307 69.4304 26.4713C69.2392 27.0118 68.9522 27.8704 68.5697 29.0469C68.1871 30.2234 67.8842 31.0978 67.6611 31.6701C67.4698 32.2425 67.2466 32.8466 66.9916 33.4826C66.5134 34.6909 66.0511 35.295 65.6048 35.295C64.8716 35.295 63.9789 34.6909 62.9269 33.4826C61.9067 32.2425 61.3966 31.2409 61.3966 30.4777C61.3966 29.7146 61.7633 28.2996 62.4965 26.2328C64.6644 19.9051 65.9077 14.1339 66.2265 8.91915C65.6208 8.44219 65.0788 7.77445 64.6006 6.91592C64.1224 6.05739 63.8833 5.34195 63.8833 4.7696C63.8833 3.81568 65.1107 2.81406 67.5654 1.76475C70.0521 0.71544 72.9054 0.190784 76.1253 0.190784C79.377 0.190784 82.0868 0.95392 84.2547 2.48019C86.4225 4.00646 87.5065 5.9938 87.5065 8.44219C87.5065 10.2546 86.9645 12.0035 85.8806 13.6888C84.8285 15.3422 83.6649 16.6459 82.3897 17.5998C81.1464 18.5219 79.9828 19.3646 78.8988 20.1277C77.8468 20.8908 77.3208 21.3837 77.3208 21.6063C77.3208 22.3694 77.5758 23.1008 78.0859 23.8003C78.596 24.468 79.3133 25.263 80.2378 26.1851C81.1623 27.0754 81.9593 27.8386 82.6288 28.4745C83.2983 29.0787 83.8402 29.5874 84.2547 30.0008C84.701 30.4141 85.1314 30.8434 85.5458 31.2886C86.4066 32.1153 86.837 32.7989 86.837 33.3395ZM80.1422 8.91915C80.1422 7.58366 78.8351 6.91592 76.2209 6.91592C74.9776 6.91592 73.4951 7.26569 71.7736 7.96523C72.5706 9.17353 72.9691 10.2864 72.9691 11.304C72.9691 13.1482 72.7141 15.1832 72.204 17.409C72.5547 17.1547 73.2082 16.7095 74.1646 16.0735C75.121 15.4058 75.8543 14.8812 76.3644 14.4996C76.9063 14.0862 77.512 13.5616 78.1815 12.9256C79.4886 11.6855 80.1422 10.35 80.1422 8.91915Z" fill="white"/>
<path d="M95.0423 35.0566C94.4046 35.0566 93.5439 34.4047 92.46 33.101C91.376 31.7655 90.8341 30.7957 90.8341 30.1916C90.8341 29.5874 91.6151 25.1676 93.1773 16.9321C94.7713 8.66477 95.6002 3.5931 95.6639 1.71706C95.7277 0.667743 96.2218 0.143086 97.1463 0.143086C97.9115 0.143086 98.9316 0.906223 100.207 2.4325C101.482 3.95877 102.12 5.38965 102.12 6.72513C102.12 7.29749 101.673 9.45971 100.781 13.2118C99.9199 16.9321 99.3301 19.5395 99.0113 21.0339C98.7244 22.4966 98.4694 23.8162 98.2462 24.9927C98.023 26.1374 97.8477 27.0436 97.7202 27.7114C96.8275 31.7814 96.1262 34.1185 95.6161 34.7227C95.4248 34.9453 95.2335 35.0566 95.0423 35.0566Z" fill="white"/>
<path d="M127.062 25.1835C127.062 27.8863 125.771 30.2075 123.189 32.1471C120.607 34.0867 117.658 35.0566 114.342 35.0566C111.027 35.0566 108.349 34.2457 106.308 32.6241C104.3 30.9706 103.296 29.2694 103.296 27.5206C103.296 25.7717 103.79 24.8973 104.778 24.8973C105.543 24.8973 106.34 25.2789 107.169 26.042C107.998 26.8051 108.923 27.5683 109.943 28.3314C110.995 29.0946 112.174 29.4761 113.481 29.4761C114.789 29.4761 116.271 28.9356 117.929 27.8545C119.586 26.7734 120.415 25.8671 120.415 25.1358C120.415 24.4044 119.507 23.1803 117.69 21.4632C115.904 19.7461 114.103 17.9814 112.286 16.1689C110.501 14.3247 109.608 12.9097 109.608 11.924C109.608 10.9065 109.783 9.80948 110.134 8.63297C110.517 7.45647 110.979 6.64564 111.521 6.20048C113.242 4.51522 115.458 3.06844 118.168 1.86014C120.909 0.620047 123.316 0 125.389 0C126.6 0 127.604 0.524656 128.401 1.57397C129.198 2.59148 129.597 3.65669 129.597 4.7696C129.597 5.21476 129.23 5.58043 128.497 5.86661C127.796 6.12099 126.759 6.39126 125.389 6.67744C124.05 6.96361 122.679 7.37698 121.276 7.91754C118.024 9.12583 116.398 10.1433 116.398 10.9701C116.398 11.3516 116.956 12.0512 118.072 13.0687C119.188 14.0544 120.399 15.1037 121.706 16.2166C123.045 17.2977 124.273 18.6809 125.389 20.3662C126.504 22.0197 127.062 23.6254 127.062 25.1835Z" fill="white"/>
<path d="M141.301 6.91592C137.858 7.1067 135.977 7.2021 135.658 7.2021C134.893 7.2021 134.128 6.74103 133.363 5.81891C132.598 4.86499 132.215 3.87927 132.215 2.86176C132.215 1.30369 136.758 0.524655 145.844 0.524655C150.499 0.524655 153.926 1.00162 156.125 1.95554C158.325 2.90946 159.425 4.07006 159.425 5.43734C159.425 5.85071 159.186 6.24817 158.708 6.62974C158.23 6.97951 157.624 7.1544 156.891 7.1544C156.157 7.1544 154.818 7.1067 152.874 7.01131C150.929 6.91592 149.16 6.85232 147.566 6.82053C147.693 7.20209 147.757 7.64726 147.757 8.15602C147.757 8.66477 147.566 9.66639 147.183 11.1609C146.832 12.6553 146.322 14.7381 145.653 17.409C144.983 20.0482 144.25 23.2597 143.453 27.0436C142.656 30.7957 142.098 33.0374 141.779 33.7688C141.492 34.4683 141.206 34.8181 140.919 34.8181C140.249 34.8181 139.404 34.2139 138.384 33.0056C137.396 31.7655 136.902 30.7639 136.902 30.0008C136.902 29.2376 137.555 26.0897 138.862 20.557C140.169 14.9924 140.982 10.4454 141.301 6.91592Z" fill="white"/>
<path d="M179.937 17.1706C181.212 17.1706 182.121 17.2977 182.663 17.5521C183.237 17.7747 183.524 18.204 183.524 18.8399C183.524 19.6984 182.137 20.5729 179.363 21.4632C179.427 23.8798 179.459 26.201 179.459 28.4268C179.459 30.6208 179.284 32.2743 178.933 33.3872C178.582 34.4683 178.024 35.0089 177.259 35.0089C176.494 35.0089 175.889 34.6273 175.442 33.8642C175.028 33.0692 174.677 31.7814 174.39 30.0008C174.135 28.2201 173.864 25.8671 173.577 22.9418C170.325 23.6731 167.982 24.2614 166.548 24.7065C164.061 31.5747 162.403 35.0089 161.574 35.0089C160.905 35.0089 160.012 34.5637 158.896 33.6734C157.812 32.783 157.271 31.8609 157.271 30.907C157.271 30.3664 157.892 28.6812 159.136 25.8512C158.594 25.5015 158.115 25.0086 157.701 24.3727C157.318 23.7049 157.127 23.069 157.127 22.4648C157.127 21.4155 158.705 20.4139 161.861 19.46C162.116 18.824 162.371 18.1086 162.626 17.3136C162.913 16.4869 163.599 14.5791 164.683 11.5901C165.798 8.60118 166.675 6.10509 167.313 4.10185C167.6 3.14793 168.588 2.25761 170.278 1.43088C171.999 0.604149 173.338 0.190784 174.295 0.190784C175.41 0.190784 176.399 1.73295 177.259 4.8173C178.152 7.90164 178.774 12.0194 179.124 17.1706H179.937ZM168.891 17.9814C169.847 17.8542 171.234 17.6952 173.051 17.5044C172.956 16.5823 172.796 15.0083 172.573 12.7825C172.382 10.5567 172.238 8.95095 172.143 7.96523C171.601 9.74588 170.517 13.0846 168.891 17.9814Z" fill="white"/>
<path d="M26.7793 70.9716C26.7793 72.9431 25.6794 74.8827 23.4797 76.7906C21.3119 78.6984 18.6658 80.2247 15.5416 81.3694C12.4492 82.4823 9.50028 83.0387 6.69483 83.0387C5.48338 83.0387 4.06472 82.3074 2.43883 80.8447C0.812943 79.3502 0 78.126 0 77.1721C0 76.6316 0.11158 76.2023 0.334741 75.8843C0.589782 75.5664 0.876704 75.4074 1.1955 75.4074C1.51431 75.4074 2.21567 75.6776 3.29959 76.2182C4.4154 76.727 5.24428 76.9813 5.78624 76.9813C6.36009 76.9813 6.91799 76.9336 7.45995 76.8382C6.66295 76.5203 5.86594 75.9638 5.06894 75.1689C4.27194 74.374 3.87344 73.6108 3.87344 72.8795C3.87344 72.5615 4.39946 70.2562 5.4515 65.9636C6.50355 61.6391 7.06145 57.9506 7.12521 54.8981C6.55137 54.3575 6.02534 53.7057 5.54714 52.9426C5.10082 52.1476 4.87766 51.5594 4.87766 51.1778C4.87766 50.2875 5.57902 49.572 6.98175 49.0315C8.38447 48.4909 10.1379 48.2206 12.242 48.2206C16.7052 48.2206 20.2758 48.8089 22.9537 49.9854C25.6635 51.1619 27.0184 53.0379 27.0184 55.6135C27.0184 57.2352 26.333 58.8887 24.9621 60.5739C23.5913 62.2592 21.7901 63.8013 19.5585 65.2004L20.0367 65.3435C21.9495 65.8523 23.5435 66.6154 24.8187 67.6329C26.1258 68.6186 26.7793 69.7315 26.7793 70.9716ZM18.3151 54.3257C17.3269 54.3257 14.9996 54.6755 11.3334 55.375C12.4811 56.6469 13.0549 57.7122 13.0549 58.5707C13.0549 59.3974 12.7839 60.9396 12.242 63.1972C12.7521 62.8156 13.6606 62.2592 14.9677 61.5278C16.2748 60.7965 17.0877 60.3195 17.4066 60.097C17.7572 59.8426 18.2195 59.4769 18.7933 58.9999C19.8773 58.1414 20.4192 57.1557 20.4192 56.0428C20.4192 54.8981 19.7179 54.3257 18.3151 54.3257ZM20.754 70.7809C20.754 70.1449 19.8294 69.6044 17.9804 69.1592C16.1632 68.6822 14.6489 68.4437 13.4375 68.4437C12.768 68.4437 12.0507 67.9509 11.2856 66.9652C9.85096 72.8477 8.9902 76.0751 8.70328 76.6475C11.3812 76.0751 14.0591 75.2007 16.7371 74.0242C19.415 72.8477 20.754 71.7666 20.754 70.7809Z" fill="white"/>
<path d="M37.7313 47.7437C38.5283 47.7437 39.5325 48.316 40.7439 49.4607C41.9872 50.6054 42.6089 51.7343 42.6089 52.8472C42.6089 53.9283 42.0351 56.7582 40.8874 61.3371C39.7397 65.9159 39.1659 69.0797 39.1659 70.8286C39.1659 72.5456 39.3731 73.8652 39.7875 74.7873C40.2338 75.7094 40.8396 76.1705 41.6047 76.1705C42.4017 76.1705 43.3262 75.6141 44.3783 74.5011C45.4303 73.3564 46.4345 71.8938 47.3909 70.1131C48.3792 68.3007 49.1922 66.1543 49.8298 63.6741C50.4992 61.1622 50.834 58.841 50.834 56.7105C50.834 54.5483 50.7224 52.8154 50.4992 51.5117C50.308 50.208 50.2123 49.4289 50.2123 49.1746C50.2123 48.1889 50.6268 47.696 51.4556 47.696C52.4758 47.696 53.7829 48.5545 55.3769 50.2716C57.0028 51.9886 57.8157 54.0396 57.8157 56.4244C57.8157 58.7774 57.4013 61.496 56.5724 64.5804C55.7435 67.6329 54.6277 70.5265 53.225 73.261C51.8223 75.9956 50.037 78.2691 47.8691 80.0816C45.7332 81.894 43.5334 82.8002 41.2699 82.8002C39.0383 82.8002 37.014 81.6237 35.1968 79.2707C33.3796 76.9177 32.471 74.517 32.471 72.0686C32.471 69.6203 32.7898 66.7903 33.4274 63.5788C34.065 60.3354 34.7026 57.426 35.3402 54.8504C35.9778 52.2748 36.2966 50.4465 36.2966 49.3654C36.2966 48.2842 36.7748 47.7437 37.7313 47.7437Z" fill="white"/>
<path d="M63.302 47.7437C65.7886 47.7437 68.4984 48.2524 71.4314 49.27C74.3963 50.2875 77.138 51.623 79.6565 53.2764C82.2069 54.9299 84.3269 56.9172 86.0166 59.2384C87.7381 61.5596 88.5989 63.9126 88.5989 66.2974C88.5989 68.0781 87.1483 70.3039 84.2472 72.9749C81.378 75.614 78.0465 77.9035 74.2528 79.8431C70.4591 81.7827 67.3508 82.7525 64.9279 82.7525C64.3859 82.7525 63.5092 82.053 62.2978 80.6539C61.1182 79.223 60.5284 78.1737 60.5284 77.506C60.5284 76.2023 61.3892 72.5774 63.1107 66.6313C64.8641 60.6534 65.948 56.5516 66.3625 54.3257C65.2148 53.5626 64.2584 52.6564 63.4933 51.6071C62.7281 50.526 62.3456 49.6197 62.3456 48.8884C62.3456 48.1253 62.6644 47.7437 63.302 47.7437ZM81.7128 64.9619C81.7128 63.9444 80.7723 62.6089 78.8914 60.9555C77.0104 59.2702 74.8266 57.8711 72.34 56.7582C72.1487 59.143 70.7938 64.2465 68.2753 72.0686C68.1478 72.482 67.9405 73.1656 67.6536 74.1196C67.3986 75.0417 67.2073 75.6617 67.0798 75.9797C70.204 74.9304 73.4239 73.1656 76.7395 70.6855C80.055 68.1735 81.7128 66.2656 81.7128 64.9619Z" fill="white"/>
<path d="M95.151 47.7437C97.6376 47.7437 100.347 48.2524 103.28 49.27C106.245 50.2875 108.987 51.623 111.505 53.2764C114.056 54.9299 116.176 56.9172 117.866 59.2384C119.587 61.5596 120.448 63.9126 120.448 66.2974C120.448 68.0781 118.997 70.3039 116.096 72.9749C113.227 75.614 109.896 77.9035 106.102 79.8431C102.308 81.7827 99.1997 82.7525 96.7769 82.7525C96.2349 82.7525 95.3582 82.053 94.1468 80.6539C92.9672 79.223 92.3774 78.1737 92.3774 77.506C92.3774 76.2023 93.2382 72.5774 94.9597 66.6313C96.7131 60.6534 97.797 56.5516 98.2115 54.3257C97.0638 53.5626 96.1074 52.6564 95.3423 51.6071C94.5771 50.526 94.1946 49.6197 94.1946 48.8884C94.1946 48.1253 94.5134 47.7437 95.151 47.7437ZM113.562 64.9619C113.562 63.9444 112.621 62.6089 110.74 60.9555C108.859 59.2702 106.676 57.8711 104.189 56.7582C103.998 59.143 102.643 64.2465 100.124 72.0686C99.9968 72.482 99.7895 73.1656 99.5026 74.1196C99.2476 75.0417 99.0563 75.6617 98.9288 75.9797C102.053 74.9304 105.273 73.1656 108.588 70.6855C111.904 68.1735 113.562 66.2656 113.562 64.9619Z" fill="white"/>
<path d="M136.181 64.1034C136.755 64.1034 137.76 62.7361 139.194 60.0016C140.661 57.267 142.143 54.5483 143.641 51.8455C145.14 49.111 146.256 47.7437 146.989 47.7437C148.073 47.7437 148.965 48.2365 149.667 49.2223C150.4 50.208 150.767 51.3845 150.767 52.7518C150.767 53.7057 149.938 55.5499 148.28 58.2845C146.622 60.9873 144.518 64.3419 141.968 68.3484C139.417 72.3548 137.457 75.7571 136.086 78.5553C135.671 79.4456 135.002 80.3677 134.077 81.3217C133.153 82.2756 132.26 82.7525 131.399 82.7525C130.124 82.7525 129.487 81.735 129.487 79.7C129.487 78.4917 130.698 75.6776 133.121 71.2578C133.504 70.5583 133.774 70.0336 133.934 69.6838C132.531 69.1433 131.256 68.253 130.108 67.0129C128.961 65.7728 128.052 64.3737 127.383 62.8156C125.98 59.5405 125.278 56.3608 125.278 53.2764C125.278 51.3686 125.486 49.9695 125.9 49.0792C126.346 48.1889 127.239 47.7437 128.578 47.7437C129.279 47.7437 129.805 48.2365 130.156 49.2223C130.507 50.1762 130.826 51.5594 131.113 53.3718C131.399 55.1843 131.798 56.79 132.308 58.1891C132.85 59.5564 133.504 60.8919 134.269 62.1956C135.066 63.4675 135.703 64.1034 136.181 64.1034Z" fill="white"/>
<path d="M161.798 53.2778C162.311 53.2778 162.721 53.5176 163.027 53.9973C163.344 54.4661 163.503 55.0712 163.503 55.8125C163.503 56.5538 163.295 57.366 162.88 58.2491C162.475 59.1321 161.94 59.868 161.273 60.4567C160.617 61.0454 159.967 61.3398 159.322 61.3398C158.447 61.3398 157.682 60.8764 157.026 59.9498C156.764 60.8437 156.578 61.2907 156.469 61.2907C156.36 61.2907 156.24 61.2144 156.108 61.0618C155.977 60.9091 155.912 60.7402 155.912 60.5548C155.912 60.3586 156.076 59.6881 156.403 58.5434C156.742 57.3987 157.081 55.9706 157.42 54.259C157.759 52.5365 157.928 50.8739 157.928 49.2713C157.928 49.086 157.945 48.9606 157.977 48.8952C158.021 48.8189 158.109 48.7807 158.24 48.7807C158.371 48.7807 158.513 48.9007 158.666 49.1405C158.819 49.3694 158.896 49.6147 158.896 49.8764C158.896 51.6425 158.579 53.8447 157.945 56.483C159.278 54.3462 160.562 53.2778 161.798 53.2778ZM157.371 59.0831C157.863 59.9552 158.475 60.3913 159.207 60.3913C159.95 60.3913 160.677 59.9007 161.388 58.9195C162.109 57.9384 162.47 56.87 162.47 55.7144C162.47 54.7659 162.213 54.2917 161.699 54.2917C161.043 54.2917 160.3 54.7714 159.469 55.7307C158.639 56.6901 157.939 57.8075 157.371 59.0831Z" fill="white"/>
<path d="M170.552 53.3596C170.694 53.3596 170.836 53.4577 170.978 53.6539C171.12 53.8392 171.191 54.0137 171.191 54.1772C171.191 54.3298 171.142 54.5642 171.044 54.8804C170.945 55.1856 170.776 55.6762 170.536 56.3521C170.306 57.0172 170.093 57.6222 169.896 58.1673C169.699 58.7124 169.399 59.5355 168.994 60.6366C168.601 61.7268 168.284 62.6208 168.043 63.3185C167.53 64.7575 166.814 65.4771 165.896 65.4771C165.338 65.4771 164.786 65.2972 164.24 64.9374C163.693 64.5886 163.42 64.2124 163.42 63.8091C163.42 63.7109 163.464 63.6019 163.551 63.482C163.639 63.3621 163.715 63.3021 163.781 63.3021C163.846 63.3021 163.977 63.4166 164.174 63.6455C164.753 64.3433 165.316 64.6921 165.863 64.6921C166.071 64.6921 166.267 64.5995 166.453 64.4141C166.65 64.2288 166.852 63.8963 167.06 63.4166C167.366 62.7407 167.825 61.4869 168.437 59.6554C167.694 60.7456 166.89 61.2907 166.027 61.2907C165.524 61.2907 165.103 61.0999 164.764 60.7184C164.426 60.3259 164.256 59.8408 164.256 59.263C164.256 58.6852 164.404 57.9057 164.699 56.9245C165.005 55.9433 165.344 55.1039 165.715 54.4061C166.087 53.7084 166.382 53.3596 166.601 53.3596C166.71 53.3596 166.814 53.425 166.912 53.5558C167.021 53.6757 167.076 53.8065 167.076 53.9483C167.076 54.0791 166.923 54.4443 166.617 55.0439C166.322 55.6435 166.021 56.3685 165.715 57.2188C165.409 58.0583 165.256 58.8269 165.256 59.5246C165.256 59.7753 165.333 59.9879 165.486 60.1624C165.65 60.3259 165.846 60.4077 166.076 60.4077C166.48 60.4077 166.901 60.1842 167.338 59.7372C167.787 59.2902 168.197 58.7124 168.568 58.0038C169.235 56.6955 169.798 55.311 170.257 53.8501C170.312 53.5558 170.361 53.4032 170.404 53.3923C170.459 53.3705 170.508 53.3596 170.552 53.3596Z" fill="white"/>
</svg>
