<svg width="133" height="44" viewBox="0 0 133 44" fill="none" xmlns="http://www.w3.org/2000/svg">
<path d="M107 32C107 32 100 23.2821 100 22.4273C100 21.0598 106.263 12 106.263 12" stroke="white" stroke-width="4" stroke-linecap="round"/>
<path d="M26 12C26 12 33 20.718 33 21.5727C33 22.9402 26.7368 32 26.7368 32" stroke="white" stroke-width="4" stroke-linecap="round"/>
<path d="M119 32C119 32 112 23.2821 112 22.4273C112 21.0598 118.263 12 118.263 12" stroke="white" stroke-width="4" stroke-linecap="round"/>
<path d="M14 12C14 12 21 20.718 21 21.5727C21 22.9402 14.7368 32 14.7368 32" stroke="white" stroke-width="4" stroke-linecap="round"/>
<path d="M131 32C131 32 124 23.2821 124 22.4273C124 21.0598 130.263 12 130.263 12" stroke="white" stroke-width="4" stroke-linecap="round"/>
<path d="M2 12C2 12 9 20.718 9 21.5727C9 22.9402 2.73684 32 2.73684 32" stroke="white" stroke-width="4" stroke-linecap="round"/>
<circle cx="67" cy="22" r="21" fill="#FF3838" stroke="white" stroke-width="2"/>
<circle cx="66.5954" cy="21.7766" r="6.968" stroke="white"/>
<path d="M53 16.5106C53 12.7575 56.0638 11.8192 58.8404 11.8192H61.3297L64 10H70.0424L72.053 11.8192H74.5C78.1765 11.8192 80.255 14.9468 80.2869 16.5106V27.2339C80.2869 30.9104 77.1593 31.8934 75.5955 31.9253H57.7872C54.1872 31.9253 53.0957 28.7977 53 27.2339V16.5106Z" stroke="white"/>
</svg>
