<svg width="68" height="52" viewBox="0 0 68 52" fill="none" xmlns="http://www.w3.org/2000/svg">
<path d="M26.3232 50.7107C-0.00365043 50.7107 1.00509 23.584 1.00512 1H54.7704C56.2402 22.935 54.7704 50.7107 26.3232 50.7107Z" stroke="white" stroke-width="2"/>
<mask id="mask0_781_766" style="mask-type:alpha" maskUnits="userSpaceOnUse" x="-1" y="0" width="58" height="52">
<path d="M26.3232 50.7107C-0.00365043 50.7107 1.00509 23.584 1.00512 1H54.7704C56.2402 22.935 54.7704 50.7107 26.3232 50.7107Z" fill="#D9D9D9" stroke="white" stroke-width="2"/>
</mask>
<g mask="url(#mask0_781_766)">
<path d="M20.282 22.5372C16.3456 26.402 5.84057 24.1475 1.08009 22.5372C-2.40026 22.5372 -9.62498 23.0072 -10.6811 24.8874C-12.0012 27.2377 20.4698 62.1108 27.5505 59.1077C34.6312 56.1046 49.685 35.9858 52.2052 34.2884C54.7255 32.591 50.8851 24.8874 49.685 22.5372C48.4848 20.1869 45.0045 20.0564 40.084 22.5372C35.1635 25.018 35.1635 22.5372 31.8032 20.0564C28.4428 17.5755 25.2025 17.7061 20.282 22.5372Z" fill="white" stroke="white" stroke-width="4"/>
</g>
<path d="M54.941 12.0475C73.5662 8.36514 68.9633 35.9827 52.3931 34.1411" stroke="white" stroke-width="1.5"/>
</svg>
